<?xml version="1.0" encoding="UTF-8" standalone="no"?>
<svg
   xmlns:dc="http://purl.org/dc/elements/1.1/"
   xmlns:cc="http://creativecommons.org/ns#"
   xmlns:rdf="http://www.w3.org/1999/02/22-rdf-syntax-ns#"
   xmlns:svg="http://www.w3.org/2000/svg"
   xmlns="http://www.w3.org/2000/svg"
   xmlns:sodipodi="http://sodipodi.sourceforge.net/DTD/sodipodi-0.dtd"
   xmlns:inkscape="http://www.inkscape.org/namespaces/inkscape"
   width="111.20623mm"
   height="79.147034mm"
   viewBox="0 0 111.20623 79.147034"
   version="1.1"
   id="svg8"
   inkscape:version="1.0.1 (3bc2e813f5, 2020-09-07)"
   sodipodi:docname="camera.svg">
  <defs
     id="defs2" />
  <sodipodi:namedview
     id="base"
     pagecolor="#ffffff"
     bordercolor="#666666"
     borderopacity="1.0"
     inkscape:pageopacity="0.0"
     inkscape:pageshadow="2"
     inkscape:zoom="1"
     inkscape:cx="241.14296"
     inkscape:cy="9.0670576"
     inkscape:document-units="mm"
     inkscape:current-layer="layer1"
     inkscape:document-rotation="0"
     showgrid="false"
     inkscape:window-width="1920"
     inkscape:window-height="1017"
     inkscape:window-x="-8"
     inkscape:window-y="32"
     inkscape:window-maximized="1" />
  <metadata
     id="metadata5">
    <rdf:RDF>
      <cc:Work
         rdf:about="">
        <dc:format>image/svg+xml</dc:format>
        <dc:type
           rdf:resource="http://purl.org/dc/dcmitype/StillImage" />
        <dc:title />
      </cc:Work>
    </rdf:RDF>
  </metadata>
  <g
     inkscape:label="Layer 1"
     inkscape:groupmode="layer"
     id="layer1"
     transform="translate(-50.641632,-109.0851)">
    <g
       id="g1669">
      <rect
         style="fill:#000000;stroke-width:0.264583"
         id="rect1345"
         width="111.125"
         height="64.255951"
         x="50.648808"
         y="123.97619" />
      <g
         id="g1368"
         transform="matrix(1.4600581,0,0,1,-45.39756,7.5595241)">
        <rect
           style="fill:#000000;stroke-width:0.269862"
           id="rect1347"
           width="12.851191"
           height="24.378922"
           x="67.701637"
           y="106.95269"
           transform="matrix(1,0,0.27563736,0.9612617,0,0)" />
        <rect
           style="fill:#000000;stroke-width:0.269862"
           id="rect1347-3"
           width="12.851191"
           height="24.378922"
           x="126.66195"
           y="106.95269"
           transform="matrix(1,0,-0.27563736,0.9612617,0,0)" />
      </g>
      <rect
         style="fill:#000000;stroke-width:0.264583"
         id="rect1370"
         width="6.8035712"
         height="12.851191"
         x="140.33928"
         y="112.34524" />
      <rect
         style="fill:#b3b3b3;stroke-width:0.266499"
         id="rect1374"
         width="111.20623"
         height="23.434523"
         x="50.641632"
         y="148.16667" />
      <g
         transform="matrix(0.97867689,0,0,0.97867689,-91.333737,-61.71671)"
         id="g1450">
        <g
           data-paper-data="{&quot;isPaintingLayer&quot;:true}"
           fill="#cfff00"
           fill-rule="nonzero"
           stroke="none"
           stroke-width="0"
           stroke-linecap="butt"
           stroke-linejoin="miter"
           stroke-miterlimit="10"
           stroke-dasharray="none"
           stroke-dashoffset="0"
           style="mix-blend-mode:normal"
           id="g1448">
          <g
             id="g1446">
            <g
               id="g1430">
              <path
                 d="m 238.57313,179.83991 1.61113,-5.31672 1.61113,5.31672 z"
                 id="path1418" />
              <path
                 d="m 239.78959,178.80893 5.52353,-0.59486 -4.26423,3.56084 z"
                 data-paper-data="{&quot;index&quot;:null}"
                 id="path1420" />
              <path
                 d="m 241.81457,179.85525 -1.61113,5.31672 -1.61113,-5.31672 z"
                 data-paper-data="{&quot;index&quot;:null}"
                 id="path1422" />
              <path
                 d="m 239.27798,181.73656 -4.26423,-3.56085 5.52353,0.59486 z"
                 id="path1424" />
              <path
                 d="m 240.69072,182.44595 -5.52353,0.59486 4.26423,-3.56085 z"
                 data-paper-data="{&quot;index&quot;:null}"
                 id="path1426" />
              <path
                 d="m 240.66529,179.2498 4.26423,3.56085 -5.52353,-0.59486 z"
                 data-paper-data="{&quot;index&quot;:null}"
                 id="path1428" />
            </g>
            <g
               id="g1444">
              <path
                 d="m 238.47491,180.92021 -1.62899,-5.31128 4.30321,3.51364 z"
                 id="path1432" />
              <path
                 d="m 238.90931,179.38594 4.25224,-3.57516 -1.55245,5.33415 z"
                 data-paper-data="{&quot;index&quot;:null}"
                 id="path1434" />
              <path
                 d="m 241.1736,179.12461 1.62899,5.31128 -4.30321,-3.51364 z"
                 data-paper-data="{&quot;index&quot;:null}"
                 id="path1436" />
              <path
                 d="m 240.11798,182.10106 -5.5255,-0.57629 4.91596,-2.58779 z"
                 id="path1438" />
              <path
                 d="m 241.6862,181.90166 -4.25224,3.57516 1.55245,-5.33415 z"
                 data-paper-data="{&quot;index&quot;:null}"
                 id="path1440" />
              <path
                 d="m 239.88202,179.26329 5.5255,0.57629 -4.91596,2.58779 z"
                 data-paper-data="{&quot;index&quot;:null}"
                 id="path1442" />
            </g>
          </g>
        </g>
      </g>
      <rect
         style="fill:#ffffff;stroke-width:0.264583"
         id="rect1548"
         width="9.0714283"
         height="4.9136906"
         x="135.80356"
         y="128.23958" />
      <rect
         style="fill:#ffffff;stroke-width:0.264583"
         id="rect1550"
         width="6.0476193"
         height="5.2916665"
         x="147.14285"
         y="127.89645" />
      <path
         style="fill:#ffffff;stroke-width:0.264583"
         id="path1554"
         sodipodi:type="arc"
         sodipodi:cx="106.41964"
         sodipodi:cy="159.68303"
         sodipodi:rx="16"
         sodipodi:ry="16"
         sodipodi:start="0"
         sodipodi:end="6.2831241"
         sodipodi:arc-type="slice"
         d="m 122.41964,159.68303 a 16,16 0 0 1 -15.99976,16 16,16 0 0 1 -16.00024,-15.99951 16,16 0 0 1 15.99927,-16.00049 16,16 0 0 1 16.00073,15.99902 l -16,9.8e-4 z" />
      <path
         style="fill:#000000;stroke-width:0.212079"
         id="path1554-81"
         sodipodi:type="arc"
         sodipodi:cx="106.41964"
         sodipodi:cy="159.68303"
         sodipodi:rx="12.825"
         sodipodi:ry="12.825"
         sodipodi:start="0"
         sodipodi:end="6.2831241"
         sodipodi:arc-type="slice"
         d="m 119.24464,159.68303 a 12.825,12.825 0 0 1 -12.8248,12.825 12.825,12.825 0 0 1 -12.8252,-12.82461 12.825,12.825 0 0 1 12.82441,-12.82539 12.825,12.825 0 0 1 12.82559,12.82421 l -12.825,7.9e-4 z" />
      <path
         style="fill:#ffffff;stroke-width:0.0414444"
         id="path1554-4"
         sodipodi:type="arc"
         sodipodi:cx="112.51038"
         sodipodi:cy="152.81676"
         sodipodi:rx="2.5062501"
         sodipodi:ry="2.5062501"
         sodipodi:start="0"
         sodipodi:end="6.2831241"
         sodipodi:arc-type="slice"
         d="m 115.01663,152.81676 a 2.5062501,2.5062501 0 0 1 -2.50621,2.50625 2.5062501,2.5062501 0 0 1 -2.50629,-2.50618 2.5062501,2.5062501 0 0 1 2.50614,-2.50632 2.5062501,2.5062501 0 0 1 2.50636,2.50609 l -2.50625,1.6e-4 z" />
      <path
         style="fill:#ffffff;stroke-width:0.0239433"
         id="path1554-4-6"
         sodipodi:type="arc"
         sodipodi:cx="107.91964"
         sodipodi:cy="157.18303"
         sodipodi:rx="1.4479169"
         sodipodi:ry="1.4479169"
         sodipodi:start="0"
         sodipodi:end="6.2831241"
         sodipodi:arc-type="slice"
         d="m 109.36756,157.18303 a 1.4479169,1.4479169 0 0 1 -1.4479,1.44792 1.4479169,1.4479169 0 0 1 -1.44794,-1.44788 1.4479169,1.4479169 0 0 1 1.44785,-1.44796 1.4479169,1.4479169 0 0 1 1.44799,1.44783 l -1.44792,9e-5 z" />
      <path
         style="fill:none;stroke:#000000;stroke-width:0.264583px;stroke-linecap:butt;stroke-linejoin:miter;stroke-opacity:1"
         d="m 140.53689,128.73958 -3.96875,0.26458 v 4.23334 l -0.26458,-4.49792 z"
         id="path1615" />
      <path
         style="fill:none;stroke:#000000;stroke-width:0.264583px;stroke-linecap:butt;stroke-linejoin:miter;stroke-opacity:1"
         d="m 151.87618,128.39645 -3.96875,0.26458 v 4.23334 l -0.26458,-4.49792 z"
         id="path1615-4" />
    </g>
  </g>
</svg>
